<svg xmlns="http://www.w3.org/2000/svg" xmlns:svg="http://www.w3.org/2000/svg" xmlns:xlink="http://www.w3.org/1999/xlink" id="svg2985" width="64" height="64" version="1.1"><defs id="defs2987"><linearGradient id="linearGradient6869"><stop style="stop-color:#c5c5c5;stop-opacity:.70588237" id="stop6871" offset="0"/><stop style="stop-color:#2c2c2c;stop-opacity:.70588237" id="stop6873" offset="1"/></linearGradient><linearGradient id="linearGradient6603"><stop style="stop-color:#c5c5c5;stop-opacity:.70588237" id="stop6605" offset="0"/><stop style="stop-color:#2c2c2c;stop-opacity:.70588237" id="stop6607" offset="1"/></linearGradient><marker id="Arrow2Mend" orient="auto" refX="0" refY="0" style="overflow:visible"><path id="path3810" d="M 8.7185878,4.0337352 L -2.2072895,0.016013256 L 8.7185884,-4.0017078 C 6.9730900,-1.6296469 6.9831476,1.6157441 8.7185878,4.0337352 z" transform="scale(0.6) rotate(180) translate(0,0)" style="font-size:12;fill-rule:evenodd;stroke-width:.625;stroke-linejoin:round"/></marker><marker id="Arrow2Mstart" orient="auto" refX="0" refY="0" style="overflow:visible"><path id="path3807" d="M 8.7185878,4.0337352 L -2.2072895,0.016013256 L 8.7185884,-4.0017078 C 6.9730900,-1.6296469 6.9831476,1.6157441 8.7185878,4.0337352 z" transform="scale(0.6) translate(0,0)" style="font-size:12;fill-rule:evenodd;stroke-width:.625;stroke-linejoin:round"/></marker><marker id="Arrow1Mend" orient="auto" refX="0" refY="0" style="overflow:visible"><path id="path3792" d="M 0.0,0.0 L 5.0,-5.0 L -12.5,0.0 L 5.0,5.0 L 0.0,0.0 z" transform="scale(0.4) rotate(180) translate(10,0)" style="fill-rule:evenodd;stroke:#000;stroke-width:1pt;marker-start:none"/></marker><marker id="Arrow1Mstart" orient="auto" refX="0" refY="0" style="overflow:visible"><path id="path3789" d="M 0.0,0.0 L 5.0,-5.0 L -12.5,0.0 L 5.0,5.0 L 0.0,0.0 z" transform="scale(0.4) translate(10,0)" style="fill-rule:evenodd;stroke:#000;stroke-width:1pt;marker-start:none"/></marker><marker id="Arrow1Sstart" orient="auto" refX="0" refY="0" style="overflow:visible"><path id="path3795" d="M 0.0,0.0 L 5.0,-5.0 L -12.5,0.0 L 5.0,5.0 L 0.0,0.0 z" transform="scale(0.2) translate(6,0)" style="fill-rule:evenodd;stroke:#000;stroke-width:1pt;marker-start:none"/></marker><marker id="Arrow2Lend" orient="auto" refX="0" refY="0" style="overflow:visible"><path id="path3804" d="M 8.7185878,4.0337352 L -2.2072895,0.016013256 L 8.7185884,-4.0017078 C 6.9730900,-1.6296469 6.9831476,1.6157441 8.7185878,4.0337352 z" transform="scale(1.1) rotate(180) translate(1,0)" style="font-size:12;fill-rule:evenodd;stroke-width:.625;stroke-linejoin:round"/></marker><marker id="Arrow2Lstart" orient="auto" refX="0" refY="0" style="overflow:visible"><path id="path3801" d="M 8.7185878,4.0337352 L -2.2072895,0.016013256 L 8.7185884,-4.0017078 C 6.9730900,-1.6296469 6.9831476,1.6157441 8.7185878,4.0337352 z" transform="scale(1.1) translate(1,0)" style="font-size:12;fill-rule:evenodd;stroke-width:.625;stroke-linejoin:round"/></marker><marker id="Arrow1Lstart" orient="auto" refX="0" refY="0" style="overflow:visible"><path id="path3783" d="M 0.0,0.0 L 5.0,-5.0 L -12.5,0.0 L 5.0,5.0 L 0.0,0.0 z" transform="scale(0.8) translate(12.5,0)" style="fill-rule:evenodd;stroke:#000;stroke-width:1pt;marker-start:none"/></marker><linearGradient id="linearGradient3783"><stop style="stop-color:#c5c5c5;stop-opacity:.70588237" id="stop3785" offset="0"/><stop style="stop-color:#2c2c2c;stop-opacity:.70588237" id="stop3787" offset="1"/></linearGradient><linearGradient id="linearGradient3789" x1="30" x2="30" y1="29" y2="53" gradientUnits="userSpaceOnUse" xlink:href="#linearGradient3783"/><linearGradient id="linearGradient3789-0" x1="30" x2="30" y1="29" y2="53" gradientUnits="userSpaceOnUse" xlink:href="#linearGradient3783-4"/><linearGradient id="linearGradient3783-4"><stop style="stop-color:#c5c5c5;stop-opacity:.70588237" id="stop3785-6" offset="0"/><stop style="stop-color:#2c2c2c;stop-opacity:.70588237" id="stop3787-4" offset="1"/></linearGradient><linearGradient id="linearGradient3812" x1="30" x2="30" y1="29" y2="53" gradientTransform="translate(65,0)" gradientUnits="userSpaceOnUse" xlink:href="#linearGradient3783-4"/><linearGradient id="linearGradient3850" x1="30" x2="30" y1="29" y2="53" gradientUnits="userSpaceOnUse" xlink:href="#linearGradient3783"/><linearGradient id="linearGradient3852" x1="30" x2="30" y1="29" y2="53" gradientTransform="translate(65,0)" gradientUnits="userSpaceOnUse" xlink:href="#linearGradient3783-4"/><linearGradient id="linearGradient6609" x1="43" x2="43" y1="9" y2="34" gradientUnits="userSpaceOnUse" xlink:href="#linearGradient6603"/><linearGradient id="linearGradient6875" x1="113.029" x2="113.029" y1="9.314" y2="35.068" gradientUnits="userSpaceOnUse" xlink:href="#linearGradient6869"/><linearGradient id="linearGradient6909" x1="113.029" x2="113.029" y1="9.314" y2="35.068" gradientUnits="userSpaceOnUse" xlink:href="#linearGradient6869"/></defs><metadata id="metadata2990"/><g id="layer1"><rect id="rect6611" width="79" height="84.745" x="-7.063" y="-10.109" ry=".956" style="fill:#000;fill-opacity:1;stroke:#000;stroke-width:.50866377;stroke-linecap:round;stroke-linejoin:miter;stroke-miterlimit:4;stroke-opacity:1;stroke-dasharray:none"/><rect id="rect3781" width="64" height="64" x="0" y="0" ry="0" style="fill:none;stroke:#fff;stroke-width:.29999999999999999;stroke-linecap:round;stroke-miterlimit:4;stroke-opacity:1;stroke-dasharray:none"/><text id="text6522" x="8" y="59" xml:space="preserve" style="font-size:19.79880333px;font-style:normal;font-variant:normal;font-weight:700;font-stretch:normal;text-align:start;line-height:125%;letter-spacing:0;word-spacing:0;writing-mode:lr-tb;text-anchor:start;fill:#fff;fill-opacity:1;stroke:none;font-family:Berlin Sans FB Demi;-inkscape-font-specification:Berlin Sans FB Demi Bold"><tspan id="tspan6524" x="8" y="59">setup</tspan></text><path style="fill:#fff;fill-opacity:1;stroke:none" id="path3881-0" d="m 20.344915,19.892936 c -0.176701,-0.07496 -0.349395,0.03925 -0.45266,0.228435 l -1.293119,2.362262 c -1.028434,-0.196123 -2.058458,-0.209914 -3.057408,-0.03558 l -1.228557,-2.364634 c -0.100048,-0.190899 -0.303808,-0.308641 -0.481756,-0.236691 l -2.22511,0.899635 c -0.177946,0.07194 -0.242628,0.298218 -0.181877,0.505007 l 0.760111,2.554032 c -0.839416,0.568922 -1.570384,1.294739 -2.173556,2.150497 L 7.4394396,25.156168 c -0.2057324,-0.06425 -0.4092727,-0.02634 -0.4842275,0.150359 l -0.9534113,2.24763 c -0.074956,0.176701 0.03925,0.349397 0.2284337,0.452661 l 2.3622626,1.293118 c -0.1961237,1.028434 -0.2099136,2.058459 -0.035567,3.057409 l -2.3646341,1.228556 c -0.1909003,0.100047 -0.3086397,0.303808 -0.2366906,0.481756 l 0.8996353,2.22511 c 0.071945,0.177947 0.2982174,0.242629 0.5050069,0.181877 l 2.554031,-0.760112 c 0.568927,0.839414 1.294745,1.570384 2.150505,2.173555 l -0.799738,2.571549 c -0.06425,0.205731 -0.02634,0.409273 0.15036,0.484227 l 2.247624,0.953411 c 0.176701,0.07496 0.349395,-0.03925 0.45266,-0.228433 l 1.293121,-2.362263 c 1.028432,0.196124 2.058457,0.209914 3.057406,0.03557 l 1.228557,2.364634 c 0.100048,0.190902 0.303807,0.308642 0.481757,0.236691 l 2.225109,-0.899635 c 0.177948,-0.07194 0.242627,-0.298217 0.181877,-0.505006 l -0.760111,-2.554033 c 0.839415,-0.568927 1.570382,-1.294744 2.173554,-2.150503 l 2.571548,0.799737 c 0.205734,0.06425 0.409274,0.02634 0.484227,-0.150359 l 0.953413,-2.247625 c 0.07496,-0.1767 -0.03925,-0.349394 -0.228434,-0.452661 L 25.41545,32.490266 c 0.196019,-1.028455 0.209904,-2.058461 0.03557,-3.057412 l 2.364634,-1.228556 c 0.190904,-0.100048 0.308641,-0.303808 0.236691,-0.481756 l -0.899631,-2.225106 c -0.07194,-0.177945 -0.298218,-0.242628 -0.505007,-0.181877 l -2.554031,0.760108 C 23.524748,25.23626 22.79893,24.505291 21.943171,23.90212 l 0.799738,-2.57155 c 0.06424,-0.205734 0.02634,-0.409271 -0.15036,-0.484226 l -2.247624,-0.953412 z m -1.108567,5.739437 c 2.906526,1.232909 4.26326,4.588585 3.030351,7.495112 -1.232909,2.906525 -4.588586,4.26326 -7.495111,3.030351 -2.906525,-1.232909 -4.26326,-4.588585 -3.030351,-7.495112 1.232909,-2.906525 4.588585,-4.26326 7.495111,-3.030351 z"/><path style="fill:#fff;fill-opacity:1;stroke:none" id="path3881" d="m 38.376184,5.9300866 c -0.191393,0.014494 -0.292419,0.1952153 -0.297352,0.4106896 l -0.06486,2.6922543 C 36.90273,9.2711027 35.856794,9.6448281 34.872754,10.136831 L 33.135106,8.0886864 C 32.996637,7.9235174 32.805093,7.8382764 32.64659,7.9465246 l -2.015746,1.3768827 c -0.158501,0.1082488 -0.154312,0.3223872 -0.05085,0.5114597 l 1.285106,2.381009 c -0.81139,0.73851 -1.532483,1.577766 -2.140383,2.491117 l -2.547383,-0.911888 c -0.202501,-0.07381 -0.414826,-0.04571 -0.49797,0.127289 l -1.057624,2.200107 c -0.08314,0.172997 0.03,0.349524 0.214108,0.461536 l 2.286465,1.409396 c -0.338203,1.04691 -0.550156,2.137199 -0.618168,3.271624 l -2.651785,0.46955 c -0.212275,0.03733 -0.375721,0.164415 -0.361227,0.355808 l 0.184361,2.434506 c 0.0145,0.19139 0.195216,0.29242 0.41069,0.297352 l 2.692254,0.06486 c 0.238072,1.111247 0.611797,2.157183 1.103801,3.141223 L 26.834098,29.766 c -0.165169,0.138468 -0.250411,0.330011 -0.142162,0.488515 l 1.376883,2.015746 c 0.108248,0.158503 0.322388,0.154313 0.511459,0.05085 l 2.381009,-1.285106 c 0.738511,0.81139 1.577767,1.532483 2.491118,2.140383 l -0.911888,2.547383 c -0.0738,0.202502 -0.0457,0.414826 0.127288,0.49797 l 2.200107,1.057624 c 0.172998,0.08314 0.349526,-0.03 0.461536,-0.214108 l 1.409397,-2.286464 c 1.046909,0.338203 2.137198,0.550156 3.271624,0.618167 l 0.469549,2.651785 c 0.03733,0.212275 0.164416,0.375721 0.355808,0.361227 l 2.434507,-0.184361 c 0.191392,-0.01449 0.292419,-0.195217 0.297352,-0.410689 l 0.06486,-2.692255 c 1.111246,-0.238072 2.157183,-0.611797 3.141222,-1.1038 l 1.737649,2.048145 c 0.138469,0.16517 0.330013,0.250409 0.488516,0.142161 l 2.015746,-1.376882 c 0.158503,-0.108249 0.154312,-0.322389 0.05085,-0.51146 l -1.285106,-2.381009 c 0.811389,-0.738511 1.532483,-1.577767 2.140383,-2.491117 l 2.547383,0.911887 c 0.202502,0.0738 0.414825,0.04571 0.497969,-0.127288 l 1.057624,-2.200107 c 0.08314,-0.172998 -0.03,-0.349526 -0.214107,-0.461536 L 53.5242,26.162261 c 0.338203,-1.04691 0.550156,-2.137199 0.618168,-3.271624 l 2.651784,-0.46955 c 0.212274,-0.03733 0.375721,-0.164416 0.361228,-0.355808 l -0.184361,-2.434506 c -0.01449,-0.191393 -0.195215,-0.29242 -0.41069,-0.297353 l -2.692254,-0.06485 c -0.238072,-1.111247 -0.611798,-2.157183 -1.103801,-3.141223 l 2.048145,-1.737649 c 0.165169,-0.138468 0.25041,-0.330012 0.142162,-0.488515 l -1.376883,-2.015746 c -0.108249,-0.158505 -0.322387,-0.154312 -0.51146,-0.05085 L 50.68523,13.119692 C 49.946719,12.308303 49.107463,11.587209 48.194112,10.97931 L 49.106,8.4319268 c 0.0738,-0.2025017 0.0457,-0.4148259 -0.127289,-0.4979699 L 46.778605,6.876333 c -0.172999,-0.083144 -0.349527,0.029966 -0.461536,0.2141075 L 44.907672,9.3769052 C 43.860762,9.0387023 42.770474,8.8267492 41.636048,8.7587377 L 41.166499,6.1069529 C 41.129166,5.894678 41.002082,5.7312316 40.810691,5.7457258 l -2.434507,0.1843608 z m 1.655672,5.6971954 c 5.771688,-0.43708 10.804888,3.887475 11.241968,9.659163 0.437079,5.771687 -3.887476,10.804888 -9.659163,11.241967 -5.771688,0.437079 -10.804888,-3.887475 -11.241968,-9.659163 -0.437079,-5.771687 3.887476,-10.804888 9.659163,-11.241967 z"/><path style="fill:none;stroke:#fff;stroke-width:3.85714293;stroke-miterlimit:4;stroke-opacity:1;stroke-dasharray:none" id="path4009" d="m 52,19 a 9,9 0 1 1 -18,0 9,9 0 1 1 18,0 z" transform="matrix(0.63336757,-0.04796377,0.04796377,0.63336757,12.677141,12.106305)"/></g></svg>