<svg xmlns="http://www.w3.org/2000/svg" xmlns:svg="http://www.w3.org/2000/svg" xmlns:xlink="http://www.w3.org/1999/xlink" id="svg2985" width="64" height="64" version="1.1"><defs id="defs2987"><linearGradient id="linearGradient6869"><stop style="stop-color:#c5c5c5;stop-opacity:.70588237" id="stop6871" offset="0"/><stop style="stop-color:#2c2c2c;stop-opacity:.70588237" id="stop6873" offset="1"/></linearGradient><linearGradient id="linearGradient6603"><stop style="stop-color:#c5c5c5;stop-opacity:.70588237" id="stop6605" offset="0"/><stop style="stop-color:#2c2c2c;stop-opacity:.70588237" id="stop6607" offset="1"/></linearGradient><marker id="Arrow2Mend" orient="auto" refX="0" refY="0" style="overflow:visible"><path id="path3810" d="M 8.7185878,4.0337352 L -2.2072895,0.016013256 L 8.7185884,-4.0017078 C 6.9730900,-1.6296469 6.9831476,1.6157441 8.7185878,4.0337352 z" transform="scale(0.6) rotate(180) translate(0,0)" style="font-size:12;fill-rule:evenodd;stroke-width:.625;stroke-linejoin:round"/></marker><marker id="Arrow2Mstart" orient="auto" refX="0" refY="0" style="overflow:visible"><path id="path3807" d="M 8.7185878,4.0337352 L -2.2072895,0.016013256 L 8.7185884,-4.0017078 C 6.9730900,-1.6296469 6.9831476,1.6157441 8.7185878,4.0337352 z" transform="scale(0.6) translate(0,0)" style="font-size:12;fill-rule:evenodd;stroke-width:.625;stroke-linejoin:round"/></marker><marker id="Arrow1Mend" orient="auto" refX="0" refY="0" style="overflow:visible"><path id="path3792" d="M 0.0,0.0 L 5.0,-5.0 L -12.5,0.0 L 5.0,5.0 L 0.0,0.0 z" transform="scale(0.4) rotate(180) translate(10,0)" style="fill-rule:evenodd;stroke:#000;stroke-width:1pt;marker-start:none"/></marker><marker id="Arrow1Mstart" orient="auto" refX="0" refY="0" style="overflow:visible"><path id="path3789" d="M 0.0,0.0 L 5.0,-5.0 L -12.5,0.0 L 5.0,5.0 L 0.0,0.0 z" transform="scale(0.4) translate(10,0)" style="fill-rule:evenodd;stroke:#000;stroke-width:1pt;marker-start:none"/></marker><marker id="Arrow1Sstart" orient="auto" refX="0" refY="0" style="overflow:visible"><path id="path3795" d="M 0.0,0.0 L 5.0,-5.0 L -12.5,0.0 L 5.0,5.0 L 0.0,0.0 z" transform="scale(0.2) translate(6,0)" style="fill-rule:evenodd;stroke:#000;stroke-width:1pt;marker-start:none"/></marker><marker id="Arrow2Lend" orient="auto" refX="0" refY="0" style="overflow:visible"><path id="path3804" d="M 8.7185878,4.0337352 L -2.2072895,0.016013256 L 8.7185884,-4.0017078 C 6.9730900,-1.6296469 6.9831476,1.6157441 8.7185878,4.0337352 z" transform="scale(1.1) rotate(180) translate(1,0)" style="font-size:12;fill-rule:evenodd;stroke-width:.625;stroke-linejoin:round"/></marker><marker id="Arrow2Lstart" orient="auto" refX="0" refY="0" style="overflow:visible"><path id="path3801" d="M 8.7185878,4.0337352 L -2.2072895,0.016013256 L 8.7185884,-4.0017078 C 6.9730900,-1.6296469 6.9831476,1.6157441 8.7185878,4.0337352 z" transform="scale(1.1) translate(1,0)" style="font-size:12;fill-rule:evenodd;stroke-width:.625;stroke-linejoin:round"/></marker><marker id="Arrow1Lstart" orient="auto" refX="0" refY="0" style="overflow:visible"><path id="path3783" d="M 0.0,0.0 L 5.0,-5.0 L -12.5,0.0 L 5.0,5.0 L 0.0,0.0 z" transform="scale(0.8) translate(12.5,0)" style="fill-rule:evenodd;stroke:#000;stroke-width:1pt;marker-start:none"/></marker><linearGradient id="linearGradient3783"><stop style="stop-color:#c5c5c5;stop-opacity:.70588237" id="stop3785" offset="0"/><stop style="stop-color:#2c2c2c;stop-opacity:.70588237" id="stop3787" offset="1"/></linearGradient><linearGradient id="linearGradient3789" x1="30" x2="30" y1="29" y2="53" gradientUnits="userSpaceOnUse" xlink:href="#linearGradient3783"/><linearGradient id="linearGradient3789-0" x1="30" x2="30" y1="29" y2="53" gradientUnits="userSpaceOnUse" xlink:href="#linearGradient3783-4"/><linearGradient id="linearGradient3783-4"><stop style="stop-color:#c5c5c5;stop-opacity:.70588237" id="stop3785-6" offset="0"/><stop style="stop-color:#2c2c2c;stop-opacity:.70588237" id="stop3787-4" offset="1"/></linearGradient><linearGradient id="linearGradient3812" x1="30" x2="30" y1="29" y2="53" gradientTransform="translate(65,0)" gradientUnits="userSpaceOnUse" xlink:href="#linearGradient3783-4"/><linearGradient id="linearGradient3850" x1="30" x2="30" y1="29" y2="53" gradientUnits="userSpaceOnUse" xlink:href="#linearGradient3783"/><linearGradient id="linearGradient3852" x1="30" x2="30" y1="29" y2="53" gradientTransform="translate(65,0)" gradientUnits="userSpaceOnUse" xlink:href="#linearGradient3783-4"/><linearGradient id="linearGradient6609" x1="43" x2="43" y1="9" y2="34" gradientUnits="userSpaceOnUse" xlink:href="#linearGradient6603"/><linearGradient id="linearGradient6875" x1="113.029" x2="113.029" y1="9.314" y2="35.068" gradientUnits="userSpaceOnUse" xlink:href="#linearGradient6869"/><linearGradient id="linearGradient6909" x1="113.029" x2="113.029" y1="9.314" y2="35.068" gradientUnits="userSpaceOnUse" xlink:href="#linearGradient6869"/><linearGradient id="linearGradient6915" x1="43" x2="43" y1="9" y2="34" gradientTransform="translate(0,70)" gradientUnits="userSpaceOnUse" xlink:href="#linearGradient6603"/></defs><metadata id="metadata2990"/><g id="layer1"><rect id="rect6611" width="39" height="29.745" x="18" y="5" ry=".336" style="fill:#000;fill-opacity:1;stroke:#000;stroke-width:.21173872;stroke-linecap:round;stroke-linejoin:miter;stroke-miterlimit:4;stroke-opacity:1;stroke-dasharray:none"/><rect style="fill:#000;fill-opacity:1;stroke:#000;stroke-width:.20144406;stroke-linecap:round;stroke-linejoin:miter;stroke-miterlimit:4;stroke-opacity:1;stroke-dasharray:none" id="rect6569" width="35" height="30" x="23" y="75" ry=".338"/><rect id="rect3781" width="64" height="64" x="0" y="0" ry="0" style="fill:none;stroke:#000;stroke-width:.30000001;stroke-linecap:round;stroke-miterlimit:4;stroke-opacity:1;stroke-dasharray:none"/><path style="fill:none;stroke:#000;stroke-width:2;stroke-linecap:butt;stroke-linejoin:miter;stroke-miterlimit:4;stroke-opacity:1;stroke-dasharray:none;marker-start:url(#Arrow2Mstart);marker-end:url(#Arrow2Mend)" id="path3778" d="m 10,80 0,44"/><text style="font-size:22px;font-style:normal;font-variant:normal;font-weight:700;font-stretch:normal;text-align:start;line-height:125%;letter-spacing:0;word-spacing:0;writing-mode:lr-tb;text-anchor:start;fill:#000;fill-opacity:1;stroke:none;font-family:Berlin Sans FB Demi;-inkscape-font-specification:Berlin Sans FB Demi Bold" id="text6118" x="25" y="124" xml:space="preserve"><tspan id="tspan6122" x="25" y="124">vol</tspan></text><text id="text6522" x="18" y="54" xml:space="preserve" style="font-size:22px;font-style:normal;font-variant:normal;font-weight:700;font-stretch:normal;text-align:start;line-height:125%;letter-spacing:0;word-spacing:0;writing-mode:lr-tb;text-anchor:start;fill:#000;fill-opacity:1;stroke:none;font-family:Berlin Sans FB Demi;-inkscape-font-specification:Berlin Sans FB Demi Bold"><tspan id="tspan6524" x="18" y="54">mod</tspan></text><rect style="fill:#fff;fill-opacity:1;stroke:#000;stroke-width:0;stroke-linecap:round;stroke-linejoin:miter;stroke-miterlimit:4;stroke-opacity:1;stroke-dasharray:none" id="rect6528" width="3.892" height="10.379" x="25.108" y="86.192" ry="1.297"/><path style="fill:url(#linearGradient6915);fill-opacity:1;stroke:#fff;stroke-width:1;stroke-linecap:butt;stroke-linejoin:miter;stroke-miterlimit:4;stroke-opacity:1;stroke-dasharray:none" id="path6534" d="m 30.133461,86.192276 0,10.379409 c 0,0 11.676835,7.784555 12.974261,7.784555 0,0 1.297426,0 1.297426,-1.29742 1.297426,-11.67684 0,-23.353675 0,-23.353675 0,0 0,-1.297426 -1.297426,-1.297426 -1.297426,0 -12.974261,7.784557 -12.974261,7.784557 z"/><path style="fill:none;stroke:#fff;stroke-width:1.5;stroke-linecap:round;stroke-linejoin:miter;stroke-miterlimit:4;stroke-opacity:1;stroke-dasharray:none" id="path6551" d="m 37.929448,23.727407 a 8,8 0 0 1 0,-15.4548136" transform="matrix(-1.2974261,0,0,-1.2974261,95.653479,112.1408)"/><path style="fill:none;stroke:#fff;stroke-width:1.5;stroke-linecap:round;stroke-linejoin:miter;stroke-miterlimit:4;stroke-opacity:1;stroke-dasharray:none" id="path6553" d="m 37.5,20.330127 a 5,5 0 0 1 0,-8.660254" transform="matrix(-1.2974261,0,0,-1.2974261,95.653479,112.1408)"/><path id="path6563" d="m 10,10 0,44" style="fill:none;stroke:#000;stroke-width:2;stroke-linecap:butt;stroke-linejoin:miter;stroke-miterlimit:4;stroke-opacity:1;stroke-dasharray:none;marker-start:url(#Arrow2Mstart);marker-end:url(#Arrow2Mend)"/><g id="g6877" transform="translate(-71,0)"><path id="path6613" d="m 126,22 a 13,13 0 1 1 -26,0 13,13 0 1 1 26,0 z" transform="translate(-2,-1)" style="fill:none;stroke:#fff;stroke-width:1;stroke-linecap:round;stroke-linejoin:miter;stroke-miterlimit:4;stroke-opacity:1;stroke-dasharray:none"/><path style="fill:url(#linearGradient6909);fill-opacity:1;stroke:#fff;stroke-width:1.45268345;stroke-linecap:round;stroke-linejoin:miter;stroke-miterlimit:4;stroke-opacity:1;stroke-dasharray:none" id="path6615" d="m 126,22 a 13,13 0 1 1 -26,0 13,13 0 1 1 26,0 z" transform="matrix(0.62008191,0,0,0.62008191,40.930744,7.3581981)"/><g style="fill:none;stroke:#fff;stroke-opacity:1" id="g6679" transform="matrix(0.99149683,0.13013085,-0.13013085,0.99149683,3.6765999,-14.265958)"><g style="fill:none;stroke:#fff;stroke-opacity:1" id="g6633"><path id="path6621" d="m 121.3923,27 c -0.52434,0.908197 -1.16548,1.743742 -1.90702,2.485281" transform="matrix(0.91666667,0,0,0.91666667,9.25,1.75)" style="stroke:#fff;stroke-width:1.09090912;stroke-linecap:round;stroke-miterlimit:4"/><path id="path6627" d="m 122,21 c -2.46875,2.4375 -1.47656,5.5 -1.47656,5.5" style="fill:none;stroke:#fff;stroke-width:1;stroke-linecap:round;stroke-linejoin:miter;stroke-miterlimit:4;stroke-opacity:1;stroke-dasharray:none"/></g><g style="fill:none;stroke:#fff;stroke-opacity:1" id="g6637" transform="matrix(0.70710678,0.70710678,-0.70710678,0.70710678,47.36039,-72.338095)"><path id="path6639" d="m 121.3923,27 c -0.52434,0.908197 -1.16548,1.743742 -1.90702,2.485281" transform="matrix(0.91666667,0,0,0.91666667,9.25,1.75)" style="stroke:#fff;stroke-width:1.09090912;stroke-linecap:round;stroke-miterlimit:4"/><path style="fill:none;stroke:#fff;stroke-width:1;stroke-linecap:round;stroke-linejoin:miter;stroke-miterlimit:4;stroke-opacity:1;stroke-dasharray:none" id="path6641" d="m 122,21 c -2.46875,2.4375 -1.47656,5.5 -1.47656,5.5"/></g><g style="fill:none;stroke:#fff;stroke-opacity:1" id="g6643" transform="matrix(0,1,-1,0,132,-90)"><path id="path6645" d="m 121.3923,27 c -0.52434,0.908197 -1.16548,1.743742 -1.90702,2.485281" transform="matrix(0.91666667,0,0,0.91666667,9.25,1.75)" style="stroke:#fff;stroke-width:1.09090912;stroke-linecap:round;stroke-miterlimit:4"/><path id="path6647" d="m 122,21 c -2.46875,2.4375 -1.47656,5.5 -1.47656,5.5" style="fill:none;stroke:#fff;stroke-width:1;stroke-linecap:round;stroke-linejoin:miter;stroke-miterlimit:4;stroke-opacity:1;stroke-dasharray:none"/></g><g style="fill:none;stroke:#fff;stroke-opacity:1" id="g6649" transform="matrix(-0.70710678,0.70710678,-0.70710678,-0.70710678,204.3381,-42.63961)"><path id="path6651" d="m 121.3923,27 c -0.52434,0.908197 -1.16548,1.743742 -1.90702,2.485281" transform="matrix(0.91666667,0,0,0.91666667,9.25,1.75)" style="stroke:#fff;stroke-width:1.09090912;stroke-linecap:round;stroke-miterlimit:4"/><path style="fill:none;stroke:#fff;stroke-width:1;stroke-linecap:round;stroke-linejoin:miter;stroke-miterlimit:4;stroke-opacity:1;stroke-dasharray:none" id="path6653" d="m 122,21 c -2.46875,2.4375 -1.47656,5.5 -1.47656,5.5"/></g><g style="fill:none;stroke:#fff;stroke-opacity:1" id="g6655" transform="matrix(-1,0,0,-1,222,42.000004)"><path id="path6657" d="m 121.3923,27 c -0.52434,0.908197 -1.16548,1.743742 -1.90702,2.485281" transform="matrix(0.91666667,0,0,0.91666667,9.25,1.75)" style="stroke:#fff;stroke-width:1.09090912;stroke-linecap:round;stroke-miterlimit:4"/><path id="path6659" d="m 122,21 c -2.46875,2.4375 -1.47656,5.5 -1.47656,5.5" style="fill:none;stroke:#fff;stroke-width:1;stroke-linecap:round;stroke-linejoin:miter;stroke-miterlimit:4;stroke-opacity:1;stroke-dasharray:none"/></g><g style="fill:none;stroke:#fff;stroke-opacity:1" id="g6661" transform="matrix(-0.70710678,-0.70710678,0.70710678,-0.70710678,174.63961,114.3381)"><path id="path6663" d="m 121.3923,27 c -0.52434,0.908197 -1.16548,1.743742 -1.90702,2.485281" transform="matrix(0.91666667,0,0,0.91666667,9.25,1.75)" style="stroke:#fff;stroke-width:1.09090912;stroke-linecap:round;stroke-miterlimit:4"/><path style="fill:none;stroke:#fff;stroke-width:1;stroke-linecap:round;stroke-linejoin:miter;stroke-miterlimit:4;stroke-opacity:1;stroke-dasharray:none" id="path6665" d="m 122,21 c -2.46875,2.4375 -1.47656,5.5 -1.47656,5.5"/></g><g style="fill:none;stroke:#fff;stroke-opacity:1" id="g6667" transform="matrix(0,-1,1,0,89.999996,132)"><path id="path6669" d="m 121.3923,27 c -0.52434,0.908197 -1.16548,1.743742 -1.90702,2.485281" transform="matrix(0.91666667,0,0,0.91666667,9.25,1.75)" style="stroke:#fff;stroke-width:1.09090912;stroke-linecap:round;stroke-miterlimit:4"/><path id="path6671" d="m 122,21 c -2.46875,2.4375 -1.47656,5.5 -1.47656,5.5" style="fill:none;stroke:#fff;stroke-width:1;stroke-linecap:round;stroke-linejoin:miter;stroke-miterlimit:4;stroke-opacity:1;stroke-dasharray:none"/></g><g style="fill:none;stroke:#fff;stroke-opacity:1" id="g6673" transform="matrix(0.70710678,-0.70710678,0.70710678,0.70710678,17.661902,84.639608)"><path id="path6675" d="m 121.3923,27 c -0.52434,0.908197 -1.16548,1.743742 -1.90702,2.485281" transform="matrix(0.91666667,0,0,0.91666667,9.25,1.75)" style="stroke:#fff;stroke-width:1.09090912;stroke-linecap:round;stroke-miterlimit:4"/><path style="fill:none;stroke:#fff;stroke-width:1;stroke-linecap:round;stroke-linejoin:miter;stroke-miterlimit:4;stroke-opacity:1;stroke-dasharray:none" id="path6677" d="m 122,21 c -2.46875,2.4375 -1.47656,5.5 -1.47656,5.5"/></g></g><rect id="rect6617" width="2.313" height="2.129" x="109.844" y="8.883" style="fill:#000;fill-opacity:1;stroke:none"/><path id="path6857" d="m 109.39062,8.2660647 c 0,5.2217783 0,5.2217783 0,5.2217783" style="fill:none;stroke:#fff;stroke-width:1.01093996px;stroke-linecap:butt;stroke-linejoin:miter;stroke-opacity:1"/><path style="fill:none;stroke:#fff;stroke-width:1.01093996px;stroke-linecap:butt;stroke-linejoin:miter;stroke-opacity:1" id="path6859" d="m 112.60938,8.2660647 c 0,5.2217783 0,5.2217783 0,5.2217783"/></g><rect id="rect6913" width="64" height="64" x="0" y="70" ry="0" style="fill:none;stroke:#000;stroke-width:.30000001;stroke-linecap:round;stroke-miterlimit:4;stroke-opacity:1;stroke-dasharray:none"/></g></svg>